<svg width="56" height="42" viewBox="0 0 56 42" fill="none" xmlns="http://www.w3.org/2000/svg">
<g id="Group 16">
<g id="Group">
<path id="Vector" d="M27.9187 4.35169C34.3939 4.35169 40.2136 6.58681 44.1329 10.6072C47.3579 11.0266 50.4001 12.3436 52.913 14.408C48.516 5.16763 39.4081 0 27.9187 0C16.5862 0 7.41557 5.16065 2.96625 14.3731C5.27018 12.4927 8.01853 11.2356 10.9478 10.7223C14.7939 6.52753 20.8542 4.35169 27.9187 4.35169Z" fill="#F8F8F8"/>
<path id="Vector_2" d="M41.8681 40.0997L41.8661 40.0997C38.6966 40.1034 35.651 38.8697 33.3777 36.6615L33.2923 36.5761L33.1938 36.5021C32.8001 36.2063 32.3777 35.9507 31.9329 35.7392L31.9256 35.7357L31.9182 35.7322C30.6631 35.1497 29.2938 34.8549 27.9103 34.8693C26.1752 34.871 24.8258 35.3043 23.9122 35.7387C23.4667 35.9498 23.0434 36.2051 22.6488 36.5007L22.5494 36.5752L22.4639 36.6606C21.031 38.0489 19.2796 39.0648 17.3629 39.6191C15.4422 40.1747 13.4145 40.2498 11.458 39.838C9.50146 39.4261 7.6761 38.5399 6.14239 37.2572C4.60868 35.9746 3.41359 34.3347 2.66221 32.4819C1.91083 30.6291 1.62617 28.62 1.83326 26.6314C2.04036 24.6427 2.73286 22.7354 3.84988 21.0772C4.9669 19.4189 6.47422 18.0605 8.23931 17.1214C10.0044 16.1822 11.9732 15.6911 13.9726 15.6912H13.9727H41.8681C45.1049 15.6912 48.2091 16.977 50.4978 19.2658C52.7865 21.5545 54.0723 24.6587 54.0723 27.8955C54.0723 31.1322 52.7865 34.2364 50.4978 36.5252C48.2091 38.8139 45.1049 40.0997 41.8681 40.0997Z" stroke="#F8F8F8" stroke-width="3.48693"/>
</g>
<circle id="Ellipse 56" cx="44.721" cy="23.7746" r="2.85294" fill="#F8F8F8"/>
<circle id="Ellipse 57" cx="38.0642" cy="22.8236" r="1.90196" fill="#F8F8F8"/>
</g>
</svg>
