<svg width="30" height="31" viewBox="0 0 30 31" fill="none" xmlns="http://www.w3.org/2000/svg">
<g id="Group">
<path id="Vector" d="M2 25.2534H6.10354M6.10354 25.2534H10.2071M6.10354 25.2534V21.1498M6.10354 25.2534V29.3569M8.85017 2H21.8447L28 8.1553V25.2534" stroke="#F8F8F8" stroke-width="2.05177" stroke-linecap="round" stroke-linejoin="round"/>
<path id="Vector_2" d="M14.3213 29.3569H21.8444C22.3886 29.3569 22.9105 29.1407 23.2953 28.7559C23.68 28.3712 23.8962 27.8493 23.8962 27.3051V11.2316C23.8963 11.1236 23.8751 11.0167 23.8338 10.9169C23.7925 10.8172 23.7319 10.7265 23.6555 10.6502L19.3495 6.34426C19.273 6.2677 19.1822 6.20702 19.0822 6.1657C18.9822 6.12439 18.875 6.10325 18.7668 6.10352H5.4303C4.88614 6.10352 4.36426 6.31969 3.97948 6.70447C3.5947 7.08925 3.37853 7.61112 3.37853 8.15529V17.0463" stroke="#F8F8F8" stroke-width="2.05177" stroke-linecap="round" stroke-linejoin="round"/>
<path id="Vector_3" d="M18.4248 6.10352V10.7542C18.4248 10.9719 18.5113 11.1806 18.6652 11.3345C18.8191 11.4884 19.0279 11.5749 19.2455 11.5749H23.8962" stroke="#F8F8F8" stroke-width="2.05177" stroke-linecap="round" stroke-linejoin="round"/>
</g>
</svg>
