<svg width="140" height="108" viewBox="0 0 140 108" fill="none" xmlns="http://www.w3.org/2000/svg">
<g id="Group 6">
<ellipse id="Ellipse 47" cx="68.2309" cy="48.6995" rx="35.6632" ry="33.3824" transform="rotate(10.5985 68.2309 48.6995)" fill="#D9D9D9"/>
<g id="Ellipse 48" filter="url(#filter0_dddd_221_86)">
<ellipse cx="68.2309" cy="48.6995" rx="35.6632" ry="33.3824" transform="rotate(10.5985 68.2309 48.6995)" fill="url(#paint0_linear_221_86)"/>
</g>
<g id="Vector 20" filter="url(#filter1_ddddd_221_86)">
<path d="M60.4069 15.9948L61.4842 16.211L61.7502 16.5281L61.4334 16.4645L61.3571 16.8448L61.6104 17.2252L61.9906 17.3015L62.7513 17.1246L63.8287 17.3407L64.3357 17.4425L65.1594 17.9374L65.223 17.6205C65.3752 17.5192 65.7429 17.3293 65.9964 17.3801C66.3133 17.4437 66.6176 17.2411 66.9979 17.3174C67.3021 17.3784 67.64 17.622 67.7709 17.7362L68.2016 18.2182C68.772 18.3326 68.5687 19.0171 68.0109 19.1688C67.5646 19.2902 66.8359 19.5484 66.5274 19.6623C66.6033 19.8313 66.849 20.2279 67.2241 20.4613C67.5992 20.6948 68.6056 20.8045 69.062 20.8301L70.076 21.0336L71.597 21.3388L72.015 21.8842L71.9133 22.3912L70.3289 22.0732C70.1429 22.1238 69.8546 22.3341 70.189 22.7704C70.5234 23.2067 70.9618 23.5188 71.1392 23.6203C70.9702 23.5864 70.7082 23.6657 71.012 24.2541C71.3029 25.4332 71.7973 25.2687 72.139 26.1943C72.4807 27.1199 72.443 26.6509 72.9623 27.3484C73.4816 28.046 73.9125 28.1984 74.0263 28.6168C74.1402 29.0352 74.4695 29.365 74.5579 29.9101C74.6463 30.4553 75.3045 32.1037 75.2282 32.4839L74.7577 34.8288C74.6432 35.3992 74.9724 36.0586 74.4652 36.2864C74.0594 36.4687 73.4254 36.759 73.1591 36.8814L72.8666 38.3391C72.6631 39.3531 72.2575 39.4035 72.1684 39.8471C71.1161 40.1634 70.4062 40.0869 70.5207 39.5165C70.6122 39.0602 70.0354 38.4302 69.7356 38.1723L69.2542 37.6142L69.4068 36.8537L69.4716 34.5593L69.6242 33.7987L69.2317 33.1266C68.9823 33.2744 68.3948 33.552 68.0399 33.4808C67.685 33.4096 67.1067 32.3267 66.862 31.7941L67.0527 30.8435L67.6615 30.4382L66.7108 30.2474L65.9635 29.3723C65.6467 29.1988 64.9522 28.8265 64.7089 28.725C64.4656 28.6234 63.805 28.0821 63.5052 27.8242L63.2137 27.6338L62.5554 26.315C62.3821 26.3022 62.0229 26.3401 61.9721 26.5936C61.9212 26.8471 61.2575 27.3072 60.932 27.5056L59.8924 27.7585C59.8924 27.6486 59.7378 27.5429 59.1189 27.9989C58.3453 28.5688 57.5466 28.6064 57.4197 28.9105C57.3181 29.1538 57.2502 29.6457 57.2289 29.8611C56.9796 29.899 56.3946 30.0761 56.0496 30.4816C55.6182 30.9884 55.4281 30.9502 55.1112 30.8866C54.8577 30.8358 54.2701 31.2453 54.008 31.4564C53.949 31.2028 53.765 30.8275 53.501 31.3546C53.237 31.8818 52.495 31.878 52.157 31.8102L51.9917 32.634L51.6114 32.5577L51.0913 33.1786L50.3039 35.4599L50.1769 35.764C50.2316 36.1486 50.3283 36.9811 50.2774 37.2346C50.8541 39.3545 50.204 39.6812 49.8069 39.5795L49.2496 38.7425L48.7053 37.5125L48.4399 36.2066L48.5925 35.4461L49.1631 35.231L49.481 33.6466L49.8363 33.1904L49.1266 32.7843L48.6328 31.96L47.999 31.8329L47.6565 32.2256L46.8326 32.0603L45.7809 31.3878C45.7894 31.2357 45.7253 31.0075 45.4006 31.3115C44.8296 32.1858 45.007 32.2874 44.411 32.6292C43.815 32.9711 43.5235 32.7808 43.333 33.4018C43.1423 34.3525 42.7361 35.0621 42.6092 35.3663C42.5322 35.5508 42.4794 35.854 42.4509 36.0745C42.5208 36.1251 42.6175 36.2033 42.748 36.3171C43.3765 36.8651 43.9729 37.2222 44.1925 37.3322L43.2792 38.2697C43.0173 38.1512 42.3869 38.0511 41.9606 38.5984C41.4278 39.2826 41.6177 39.6504 42.6063 39.9806C43.6826 41.8447 43.3787 41.3882 43.1625 42.4656L42.2746 43.2763C42.1954 43.6713 42.4869 43.951 42.6653 44.1277C42.5654 43.9031 42.5357 43.6398 43.174 44.3798C43.9441 45.2727 44.7617 46.1048 45.0742 46.4092C44.9724 46.9162 44.9262 47.8036 45.5553 47.2969C46.3417 46.6636 46.4055 46.0171 47.1658 46.4993C48.2603 47.6155 49.21 48.0302 49.548 48.0981L50.5109 48.8846L51.4615 49.0754L51.3344 49.7091C51.2581 50.0894 51.5623 50.2163 51.9675 50.8251C52.7526 52.1693 54.1976 52.5252 54.1594 52.7153C54.1289 52.8674 54.6114 52.8719 54.8565 52.8552C54.9833 52.7707 55.2825 52.7033 55.4648 53.1091C55.6471 53.5149 55.9714 53.9799 56.1107 54.1617C56.1994 54.2674 56.3564 54.5802 56.275 54.9858C56.0817 55.9491 56.185 56.9675 56.2608 57.3563L56.1082 58.1168C56.2433 58.3197 56.6148 58.7459 57.0205 58.8273L58.288 59.0816C58.6682 59.1579 59.1504 58.3976 59.4921 59.3232C59.7654 60.0637 60.2816 60.4266 60.5055 60.5155C60.8436 60.3636 61.5959 60.2068 61.8997 60.7952C62.2036 61.3836 62.7613 61.5395 63.0021 61.5439C63.1922 61.6919 63.5824 62.069 63.6228 62.3936C63.6631 62.7181 63.9519 63.1629 64.0912 63.3446L64.5726 63.9027C64.7542 63.9831 64.9907 64.1844 64.4836 64.3464C63.8496 64.5488 63.2031 64.485 63.1268 64.8652C63.0658 65.1694 61.9517 65.4645 61.4023 65.574L61.5412 66.5249L61.0335 67.4119C61.1602 67.5472 61.3045 67.9014 60.8682 68.2358C60.3229 68.6538 59.9931 68.9832 59.7394 69.2619C59.4856 69.5406 59.2576 69.363 58.9786 69.4389C58.7555 69.4996 57.6604 69.2183 57.1408 69.0701C56.7689 69.0614 55.9745 69.0998 55.7715 69.3228C55.5178 69.6015 55.2134 69.8041 54.6679 70.5517C54.1223 71.2993 53.4629 71.6285 52.6009 71.6533C51.9112 71.6731 51.2655 71.8468 51.0288 71.9312L50.9525 72.3115C50.2625 72.8586 49.532 73.3669 49.253 73.5527L48.6947 74.3636L49.5814 75.5305C49.8011 75.6405 50.2327 75.8985 50.2022 76.0506C50.1641 76.2407 50.7978 76.3679 50.7215 76.7481C50.6452 77.1284 50.9116 76.7863 51.1268 77.3569C51.3419 77.9275 52.1024 78.0801 52.0388 78.3969C51.7718 79.7278 52.938 79.83 52.3294 79.9057C51.8426 79.9662 50.7918 79.1356 50.3273 78.7128L49.1236 77.812L48.0462 77.5958L47.5144 76.632L46.919 75.9851L45.9054 75.1225L45.526 73.7278C45.5301 73.8165 45.498 73.8672 45.336 73.3601C45.1741 72.8529 44.8889 72.1935 44.7665 71.9272C44.6481 71.9694 44.4191 71.9498 44.4498 71.5341C44.4805 71.1183 44.7424 69.9666 44.8695 69.4427L44.6545 68.5425L45.036 66.6412L45.0996 66.3243L44.7075 64.993C44.8174 64.9931 44.989 64.9045 44.7965 64.5494C44.604 64.1944 44.5483 62.8295 44.5445 62.1914L44.1138 61.7094L43.633 60.1625C43.6627 60.0147 43.5953 59.6935 43.0883 59.5918C42.5813 59.49 42.2526 58.0616 42.1516 57.3601L40.3533 54.494L40.8735 53.8732L41.1532 52.4789C41.2346 52.0733 41.1625 51.1183 41.1163 50.6915C41.1545 50.5013 41.3068 50.1363 41.611 50.1974C41.9913 50.2737 42.1943 49.9189 42.486 49.7796C42.7193 49.6682 43.5811 48.7028 43.9828 48.234L44.11 47.6002L43.667 46.5224L43.2999 45.7236L42.1591 45.4947L41.2093 43.9855L41.2612 42.0841L41.0588 41.4501L40.4888 40.6765L39.9818 40.5747L40.8195 39.0287L40.6939 37.0257L40.0731 36.5056L39.5669 35.0855L39.2763 33.5768L39.3399 33.2599L39.8104 30.915L39.9253 29.6854L40.9785 28.0508L41.093 27.4804L41.36 26.1495L42.3113 25.3515L42.5274 24.2741L42.6165 23.8305L43.6061 22.5127L43.8095 21.4987L45.7248 19.8393L47.5001 18.877L49.7702 17.4206L50.9366 17.1931L52.9909 16.155L54.9559 15.89L57.5931 15.2325L59.127 15.1447L60.4069 15.9948Z" fill="url(#paint1_linear_221_86)"/>
</g>
<g id="Vector 21" filter="url(#filter2_ddddd_221_86)">
<path d="M99.3945 43.3554L100.157 44.2046L100.465 43.9278L100.877 43.5586L101.054 42.9365L100.541 42.1058C100.464 41.9514 100.307 41.6064 100.297 41.4615C100.288 41.3165 100.044 40.8303 99.9236 40.6053L99.6822 40.1553L99.569 39.5241L99.484 39.0507L99.2784 38.3523L98.7241 37.9491C98.6781 37.847 98.5669 37.67 98.49 37.7787C98.3939 37.9146 97.5637 37.6536 97.3901 37.5274L96.528 36.9002C96.4135 36.9541 96.1891 37.1202 96.2077 37.3532C96.2244 37.8044 95.8591 37.6484 95.6743 37.514C95.4776 37.4624 95.0915 37.3095 95.1201 37.1108C95.1486 36.9121 94.9621 36.0812 94.8652 35.6906L94.752 35.0594L93.2517 35.2028L92.6259 35.2964L92.3532 35.6821C92.1788 35.9287 91.8951 35.9342 91.7751 35.9062C91.6626 35.9993 91.4006 36.1587 91.2528 36.0512C91.105 35.9437 90.3562 35.7365 90.0003 35.6464C89.893 35.5343 89.7021 35.1976 89.7966 34.7473C89.8912 34.2971 90.2065 33.6401 90.3523 33.3679L90.8857 33.2071C91.1275 33.0629 91.5558 32.7342 91.3341 32.5729C91.1124 32.4117 91.3132 32.0089 91.4414 31.8277L91.1791 30.8137L91.9404 30.1327C91.9642 29.9671 92.0247 29.6178 92.076 29.5453C92.14 29.4547 92.3888 29.4985 92.3963 29.0923C92.4023 28.7674 92.4941 28.2945 92.5393 28.0987L92.5184 27.5347C92.4807 27.3243 92.3811 26.8585 92.2845 26.6785C92.188 26.4985 92.0694 25.9275 92.0223 25.6645C91.9939 25.5067 91.9132 25.1461 91.8166 24.9661C91.6959 24.7411 91.223 24.1379 91.1121 24.1109C90.9415 24.0693 90.9315 23.768 90.5546 23.9054C90.1777 24.0428 89.5688 23.995 89.5688 23.995C89.4218 24.071 88.7029 24.1125 88.834 23.7688C88.9979 23.3392 87.6979 22.7867 88.2596 22.7837C88.7089 22.7814 89.6747 22.3279 89.8311 22.3045C89.8952 22.2139 90.6214 22.4227 90.8943 22.5115C91.1673 22.6003 91.5258 22.6543 91.8456 22.7955C91.8764 22.8179 92.4126 22.9919 92.6343 23.1532C92.856 23.3144 93.9911 24.5976 94.531 25.219L95.1576 25.8435L95.6908 26.7204L96.2486 27.4966L96.6201 28.4605L97.4821 29.3875L97.949 30.1519L98.2629 31.0531L98.6617 31.606L99.1433 32.2569L99.576 33.3227L100.161 34.2122L101.126 35.9414L101.434 36.87L101.684 37.8302L102.252 39.2036L102.483 40.0068L102.638 40.6848L103.122 41.7632L103.558 43.4789L103.739 44.0477L103.818 44.6004L103.973 45.2784L104.002 46.0326L104.617 47.8896L104.907 50.2012L103.87 54.4555L103.295 57.8475L102.319 61.3109L100.23 64.5545L98.9249 67.5471L96.7245 70.5766L94.6821 73.3684L92.7287 75.1219L90.8268 76.8292C89.9249 77.4791 88.0704 78.8051 87.8678 78.9102C87.6652 79.0154 86.8832 79.1232 86.5175 79.1639L85.8981 78.4739C85.9474 78.0462 86.0197 77.0996 85.9144 76.734C85.809 76.3685 85.8805 76.3172 85.9294 76.3372C86.0067 76.0441 86.223 75.4027 86.4698 75.1812L88.0633 73.7507C88.6802 73.197 88.2501 72.7524 87.958 72.5993L89.3459 71.3534L90.5282 70.2921C90.8722 69.9514 91.7378 69.0337 92.449 68.0886C93.3379 66.9073 92.6734 67.408 93.0846 67.0388C93.4959 66.6696 93.852 66.4459 94.0613 66.1621C94.2288 65.935 94.6192 64.543 94.7935 63.8754C95.1792 63.3055 96.1057 62.0074 96.7256 61.3743C97.5004 60.5829 95.5156 60.5435 95.6297 60.1535C95.7438 59.7636 95.656 59.459 96.6076 57.9338C96.7019 57.5425 96.2975 57.3815 96.0835 57.35L94.5062 57.0406L93.4167 56.9643L92.6757 56.8627L92.0086 56.1196C91.7056 55.8165 91.1247 55.0728 91.225 54.5227C91.3253 53.9726 91.2308 53.4951 91.171 53.3251C91.2471 53.0652 91.4441 52.4091 91.6236 51.8645C91.848 51.1838 91.7603 50.8792 91.3402 48.8601C91.1722 48.0525 90.5302 47.9578 90.7872 47.7271C91.0443 47.4964 91.7527 47.148 92.021 46.6196C92.2893 46.0913 92.1426 46.0312 92.451 45.7544C92.6977 45.5329 92.5814 44.9345 92.4923 44.6629C92.3962 44.1422 92.2965 43.0177 92.6666 42.6854C93.1292 42.2701 93.2508 41.6817 94.62 40.932C94.9284 40.6551 95.1528 39.9744 95.8211 39.3746C96.4893 38.7747 95.8913 38.8323 96.5408 38.7285C97.0603 38.6455 97.2337 39.2247 97.2554 39.5247L98.2084 40.5863C98.406 41.0478 98.8579 42.0544 99.0835 42.3885C99.3092 42.7227 99.3849 43.1723 99.3945 43.3554Z" fill="url(#paint2_linear_221_86)"/>
</g>
<path id="Ellipse 49" fill-rule="evenodd" clip-rule="evenodd" d="M62.7232 60.7054C94.6852 81.3698 123.966 92.9081 128.124 86.477C131.032 81.979 120.881 69.8824 103.58 55.9466L103.384 57.5489C115.092 67.1311 121.401 73.5482 119.374 76.7276C118.184 83.0126 68.2926 51.7875 68.2926 51.7875C68.2926 51.7875 22.7422 20.3698 27.4286 15.842C29.2059 14.1301 35.0819 16.023 44.8389 20.601L45.5481 19.9856L46.2715 19.5017C28.4511 10.8895 15.0873 7.45624 12.3794 11.6446C8.22145 18.0758 30.7611 40.041 62.7232 60.7054Z" fill="url(#paint3_linear_221_86)" fill-opacity="0.54"/>
<path id="Ellipse 50" fill-rule="evenodd" clip-rule="evenodd" d="M71.4786 63.8022C109.322 59.7437 139.338 50.2809 138.521 42.6664C137.95 37.3408 122.448 34.3297 100.233 34.3892L101.089 35.7576C116.218 35.8354 125.16 36.8508 125.586 40.5972C128.616 46.2306 70.1937 53.3668 70.1937 53.3668C70.1937 53.3668 15.023 57.6213 15.815 51.1532C16.1186 48.7043 22.4073 46.3537 32.8707 43.7703L33.0233 42.9551L33.1949 42.038C13.9264 46.5615 0.94677 52.4042 1.4786 57.3633C2.2952 64.9778 33.6353 67.8606 71.4786 63.8022Z" fill="url(#paint4_linear_221_86)"/>
<g id="Ellipse 51" filter="url(#filter3_dddd_221_86)">
<ellipse cx="68.2309" cy="48.6995" rx="35.6632" ry="33.3824" transform="rotate(10.5985 68.2309 48.6995)" fill="url(#paint5_linear_221_86)"/>
</g>
<g id="Vector 22" filter="url(#filter4_ddddd_221_86)">
<path d="M60.4069 15.9948L61.4842 16.211L61.7502 16.5281L61.4334 16.4645L61.3571 16.8448L61.6104 17.2252L61.9906 17.3015L62.7513 17.1246L63.8287 17.3407L64.3357 17.4425L65.1594 17.9374L65.223 17.6205C65.3752 17.5192 65.7429 17.3293 65.9964 17.3801C66.3133 17.4437 66.6176 17.2411 66.9979 17.3174C67.3021 17.3784 67.64 17.622 67.7709 17.7362L68.2016 18.2182C68.772 18.3326 68.5687 19.0171 68.0109 19.1688C67.5646 19.2902 66.8359 19.5484 66.5274 19.6623C66.6033 19.8313 66.849 20.2279 67.2241 20.4613C67.5992 20.6948 68.6056 20.8045 69.062 20.8301L70.076 21.0336L71.597 21.3388L72.015 21.8842L71.9133 22.3912L70.3289 22.0732C70.1429 22.1238 69.8546 22.3341 70.189 22.7704C70.5234 23.2067 70.9618 23.5188 71.1392 23.6203C70.9702 23.5864 70.7082 23.6657 71.012 24.2541C71.3029 25.4332 71.7973 25.2687 72.139 26.1943C72.4807 27.1199 72.443 26.6509 72.9623 27.3484C73.4816 28.046 73.9125 28.1984 74.0263 28.6168C74.1402 29.0352 74.4695 29.365 74.5579 29.9101C74.6463 30.4553 75.3045 32.1037 75.2282 32.4839L74.7577 34.8288C74.6432 35.3992 74.9724 36.0586 74.4652 36.2864C74.0594 36.4687 73.4254 36.759 73.1591 36.8814L72.8666 38.3391C72.6631 39.3531 72.2575 39.4035 72.1684 39.8471C71.1161 40.1634 70.4062 40.0869 70.5207 39.5165C70.6122 39.0602 70.0354 38.4302 69.7356 38.1723L69.2542 37.6142L69.4068 36.8537L69.4716 34.5593L69.6242 33.7987L69.2317 33.1266C68.9823 33.2744 68.3948 33.552 68.0399 33.4808C67.685 33.4096 67.1067 32.3267 66.862 31.7941L67.0527 30.8435L67.6615 30.4382L66.7108 30.2474L65.9635 29.3723C65.6467 29.1988 64.9522 28.8265 64.7089 28.725C64.4656 28.6234 63.805 28.0821 63.5052 27.8242L63.2137 27.6338L62.5554 26.315C62.3821 26.3022 62.0229 26.3401 61.9721 26.5936C61.9212 26.8471 61.2575 27.3072 60.932 27.5056L59.8924 27.7585C59.8924 27.6486 59.7378 27.5429 59.1189 27.9989C58.3453 28.5688 57.5466 28.6064 57.4197 28.9105C57.3181 29.1538 57.2502 29.6457 57.2289 29.8611C56.9796 29.899 56.3946 30.0761 56.0496 30.4816C55.6182 30.9884 55.4281 30.9502 55.1112 30.8866C54.8577 30.8358 54.2701 31.2453 54.008 31.4564C53.949 31.2028 53.765 30.8275 53.501 31.3546C53.237 31.8818 52.495 31.878 52.157 31.8102L51.9917 32.634L51.6114 32.5577L51.0913 33.1786L50.3039 35.4599L50.1769 35.764C50.2316 36.1486 50.3283 36.9811 50.2774 37.2346C50.8541 39.3545 50.204 39.6812 49.8069 39.5795L49.2496 38.7425L48.7053 37.5125L48.4399 36.2066L48.5925 35.4461L49.1631 35.231L49.481 33.6466L49.8363 33.1904L49.1266 32.7843L48.6328 31.96L47.999 31.8329L47.6565 32.2256L46.8326 32.0603L45.7809 31.3878C45.7894 31.2357 45.7253 31.0075 45.4006 31.3115C44.8296 32.1858 45.007 32.2874 44.411 32.6292C43.815 32.9711 43.5235 32.7808 43.333 33.4018C43.1423 34.3525 42.7361 35.0621 42.6092 35.3663C42.5322 35.5508 42.4794 35.854 42.4509 36.0745C42.5208 36.1251 42.6175 36.2033 42.748 36.3171C43.3765 36.8651 43.9729 37.2222 44.1925 37.3322L43.2792 38.2697C43.0173 38.1512 42.3869 38.0511 41.9606 38.5984C41.4278 39.2826 41.6177 39.6504 42.6063 39.9806C43.6826 41.8447 43.3787 41.3882 43.1625 42.4656L42.2746 43.2763C42.1954 43.6713 42.4869 43.951 42.6653 44.1277C42.5654 43.9031 42.5357 43.6398 43.174 44.3798C43.9441 45.2727 44.7617 46.1048 45.0742 46.4092C44.9724 46.9162 44.9262 47.8036 45.5553 47.2969C46.3417 46.6636 46.4055 46.0171 47.1658 46.4993C48.2603 47.6155 49.21 48.0302 49.548 48.0981L50.5109 48.8846L51.4615 49.0754L51.3344 49.7091C51.2581 50.0894 51.5623 50.2163 51.9675 50.8251C52.7526 52.1693 54.1976 52.5252 54.1594 52.7153C54.1289 52.8674 54.6114 52.8719 54.8565 52.8552C54.9833 52.7707 55.2825 52.7033 55.4648 53.1091C55.6471 53.5149 55.9714 53.9799 56.1107 54.1617C56.1994 54.2674 56.3564 54.5802 56.275 54.9858C56.0817 55.9491 56.185 56.9675 56.2608 57.3563L56.1082 58.1168C56.2433 58.3197 56.6148 58.7459 57.0205 58.8273L58.288 59.0816C58.6682 59.1579 59.1504 58.3976 59.4921 59.3232C59.7654 60.0637 60.2816 60.4266 60.5055 60.5155C60.8436 60.3636 61.5959 60.2068 61.8997 60.7952C62.2036 61.3836 62.7613 61.5395 63.0021 61.5439C63.1922 61.6919 63.5824 62.069 63.6228 62.3936C63.6631 62.7181 63.9519 63.1629 64.0912 63.3446L64.5726 63.9027C64.7542 63.9831 64.9907 64.1844 64.4836 64.3464C63.8496 64.5488 63.2031 64.485 63.1268 64.8652C63.0658 65.1694 61.9517 65.4645 61.4023 65.574L61.5412 66.5249L61.0335 67.4119C61.1602 67.5472 61.3045 67.9014 60.8682 68.2358C60.3229 68.6538 59.9931 68.9832 59.7394 69.2619C59.4856 69.5406 59.2576 69.363 58.9786 69.4389C58.7555 69.4996 57.6604 69.2183 57.1408 69.0701C56.7689 69.0614 55.9745 69.0998 55.7715 69.3228C55.5178 69.6015 55.2134 69.8041 54.6679 70.5517C54.1223 71.2993 53.4629 71.6285 52.6009 71.6533C51.9112 71.6731 51.2655 71.8468 51.0288 71.9312L50.9525 72.3115C50.2625 72.8586 49.532 73.3669 49.253 73.5527L48.6947 74.3636L49.5814 75.5305C49.8011 75.6405 50.2327 75.8985 50.2022 76.0506C50.1641 76.2407 50.7978 76.3679 50.7215 76.7481C50.6452 77.1284 50.9116 76.7863 51.1268 77.3569C51.3419 77.9275 52.1024 78.0801 52.0388 78.3969C51.7718 79.7278 52.938 79.83 52.3294 79.9057C51.8426 79.9662 50.7918 79.1356 50.3273 78.7128L49.1236 77.812L48.0462 77.5958L47.5144 76.632L46.919 75.9851L45.9054 75.1225L45.526 73.7278C45.5301 73.8165 45.498 73.8672 45.336 73.3601C45.1741 72.8529 44.8889 72.1935 44.7665 71.9272C44.6481 71.9694 44.4191 71.9498 44.4498 71.5341C44.4805 71.1183 44.7424 69.9666 44.8695 69.4427L44.6545 68.5425L45.036 66.6412L45.0996 66.3243L44.7075 64.993C44.8174 64.9931 44.989 64.9045 44.7965 64.5494C44.604 64.1944 44.5483 62.8295 44.5445 62.1914L44.1138 61.7094L43.633 60.1625C43.6627 60.0147 43.5953 59.6935 43.0883 59.5918C42.5813 59.49 42.2526 58.0616 42.1516 57.3601L40.3533 54.494L40.8735 53.8732L41.1532 52.4789C41.2346 52.0733 41.1625 51.1183 41.1163 50.6915C41.1545 50.5013 41.3068 50.1363 41.611 50.1974C41.9913 50.2737 42.1943 49.9189 42.486 49.7796C42.7193 49.6682 43.5811 48.7028 43.9828 48.234L44.11 47.6002L43.667 46.5224L43.2999 45.7236L42.1591 45.4947L41.2093 43.9855L41.2612 42.0841L41.0588 41.4501L40.4888 40.6765L39.9818 40.5747L40.8195 39.0287L40.6939 37.0257L40.0731 36.5056L39.5669 35.0855L39.2763 33.5768L39.3399 33.2599L39.8104 30.915L39.9253 29.6854L40.9785 28.0508L41.093 27.4804L41.36 26.1495L42.3113 25.3515L42.5274 24.2741L42.6165 23.8305L43.6061 22.5127L43.8095 21.4987L45.7248 19.8393L47.5001 18.877L49.7702 17.4206L50.9366 17.1931L52.9909 16.155L54.9559 15.89L57.5931 15.2325L59.127 15.1447L60.4069 15.9948Z" fill="url(#paint6_linear_221_86)"/>
</g>
<g id="Vector 23" filter="url(#filter5_ddddd_221_86)">
<path d="M99.3945 43.3554L100.157 44.2046L100.465 43.9278L100.877 43.5586L101.054 42.9365L100.541 42.1058C100.464 41.9514 100.307 41.6064 100.297 41.4615C100.288 41.3165 100.044 40.8303 99.9236 40.6053L99.6822 40.1553L99.569 39.5241L99.484 39.0507L99.2784 38.3523L98.7241 37.9491C98.6781 37.847 98.5669 37.67 98.49 37.7787C98.3939 37.9146 97.5637 37.6536 97.3901 37.5274L96.528 36.9002C96.4135 36.9541 96.1891 37.1202 96.2077 37.3532C96.2244 37.8044 95.8591 37.6484 95.6743 37.514C95.4776 37.4624 95.0915 37.3095 95.1201 37.1108C95.1486 36.9121 94.9621 36.0812 94.8652 35.6906L94.752 35.0594L93.2517 35.2028L92.6259 35.2964L92.3532 35.6821C92.1788 35.9287 91.8951 35.9342 91.7751 35.9062C91.6626 35.9993 91.4006 36.1587 91.2528 36.0512C91.105 35.9437 90.3562 35.7365 90.0003 35.6464C89.893 35.5343 89.7021 35.1976 89.7966 34.7473C89.8912 34.2971 90.2065 33.6401 90.3523 33.3679L90.8857 33.2071C91.1275 33.0629 91.5558 32.7342 91.3341 32.5729C91.1124 32.4117 91.3132 32.0089 91.4414 31.8277L91.1791 30.8137L91.9404 30.1327C91.9642 29.9671 92.0247 29.6178 92.076 29.5453C92.14 29.4547 92.3888 29.4985 92.3963 29.0923C92.4023 28.7674 92.4941 28.2945 92.5393 28.0987L92.5184 27.5347C92.4807 27.3243 92.3811 26.8585 92.2845 26.6785C92.188 26.4985 92.0694 25.9275 92.0223 25.6645C91.9939 25.5067 91.9132 25.1461 91.8166 24.9661C91.6959 24.7411 91.223 24.1379 91.1121 24.1109C90.9415 24.0693 90.9315 23.768 90.5546 23.9054C90.1777 24.0428 89.5688 23.995 89.5688 23.995C89.4218 24.071 88.7029 24.1125 88.834 23.7688C88.9979 23.3392 87.6979 22.7867 88.2596 22.7837C88.7089 22.7814 89.6747 22.3279 89.8311 22.3045C89.8952 22.2139 90.6214 22.4227 90.8943 22.5115C91.1673 22.6003 91.5258 22.6543 91.8456 22.7955C91.8764 22.8179 92.4126 22.9919 92.6343 23.1532C92.856 23.3144 93.9911 24.5976 94.531 25.219L95.1576 25.8435L95.6908 26.7204L96.2486 27.4966L96.6201 28.4605L97.4821 29.3875L97.949 30.1519L98.2629 31.0531L98.6617 31.606L99.1433 32.2569L99.576 33.3227L100.161 34.2122L101.126 35.9414L101.434 36.87L101.684 37.8302L102.252 39.2036L102.483 40.0068L102.638 40.6848L103.122 41.7632L103.558 43.4789L103.739 44.0477L103.818 44.6004L103.973 45.2784L104.002 46.0326L104.617 47.8896L104.907 50.2012L103.87 54.4555L103.295 57.8475L102.319 61.3109L100.23 64.5545L98.9249 67.5471L96.7245 70.5766L94.6821 73.3684L92.7287 75.1219L90.8268 76.8292C89.9249 77.4791 88.0704 78.8051 87.8678 78.9102C87.6652 79.0154 86.8832 79.1232 86.5175 79.1639L85.8981 78.4739C85.9474 78.0462 86.0197 77.0996 85.9144 76.734C85.809 76.3685 85.8805 76.3172 85.9294 76.3372C86.0067 76.0441 86.223 75.4027 86.4698 75.1812L88.0633 73.7507C88.6802 73.197 88.2501 72.7524 87.958 72.5993L89.3459 71.3534L90.5282 70.2921C90.8722 69.9514 91.7378 69.0337 92.449 68.0886C93.3379 66.9073 92.6734 67.408 93.0846 67.0388C93.4959 66.6696 93.852 66.4459 94.0613 66.1621C94.2288 65.935 94.6192 64.543 94.7935 63.8754C95.1792 63.3055 96.1057 62.0074 96.7256 61.3743C97.5004 60.5829 95.5156 60.5435 95.6297 60.1535C95.7438 59.7636 95.656 59.459 96.6076 57.9338C96.7019 57.5425 96.2975 57.3815 96.0835 57.35L94.5062 57.0406L93.4167 56.9643L92.6757 56.8627L92.0086 56.1196C91.7056 55.8165 91.1247 55.0728 91.225 54.5227C91.3253 53.9726 91.2308 53.4951 91.171 53.3251C91.2471 53.0652 91.4441 52.4091 91.6236 51.8645C91.848 51.1838 91.7603 50.8792 91.3402 48.8601C91.1722 48.0525 90.5302 47.9578 90.7872 47.7271C91.0443 47.4964 91.7527 47.148 92.021 46.6196C92.2893 46.0913 92.1426 46.0312 92.451 45.7544C92.6977 45.5329 92.5814 44.9345 92.4923 44.6629C92.3962 44.1422 92.2965 43.0177 92.6666 42.6854C93.1292 42.2701 93.2508 41.6817 94.62 40.932C94.9284 40.6551 95.1528 39.9744 95.8211 39.3746C96.4893 38.7747 95.8913 38.8323 96.5408 38.7285C97.0603 38.6455 97.2337 39.2247 97.2554 39.5247L98.2084 40.5863C98.406 41.0478 98.8579 42.0544 99.0835 42.3885C99.3092 42.7227 99.3849 43.1723 99.3945 43.3554Z" fill="url(#paint7_linear_221_86)"/>
</g>
<path id="Ellipse 52" fill-rule="evenodd" clip-rule="evenodd" d="M62.7232 60.7054C94.6852 81.3698 123.966 92.9081 128.124 86.477C131.032 81.979 120.881 69.8824 103.58 55.9466L103.384 57.5489C115.092 67.1311 121.401 73.5482 119.374 76.7276C118.184 83.0126 68.2926 51.7875 68.2926 51.7875C68.2926 51.7875 22.7422 20.3698 27.4286 15.842C29.2059 14.1301 35.0819 16.023 44.8389 20.601L45.5481 19.9856L46.2715 19.5017C28.4511 10.8895 15.0873 7.45624 12.3794 11.6446C8.22145 18.0758 30.7611 40.041 62.7232 60.7054Z" fill="url(#paint8_linear_221_86)" fill-opacity="0.54"/>
<path id="Ellipse 53" fill-rule="evenodd" clip-rule="evenodd" d="M71.4846 63.8016C109.325 59.7435 139.338 50.281 138.521 42.6665C137.95 37.3409 122.449 34.3297 100.236 34.389L101.092 35.7574C116.22 35.8353 125.161 36.8508 125.587 40.5972C128.617 46.2306 70.1998 53.3662 70.1998 53.3662C70.1998 53.3662 15.034 57.6202 15.8259 51.1521C16.1295 48.7032 22.4176 46.3527 32.88 43.7694L33.0326 42.9542L33.2042 42.0371C13.9374 46.5604 0.959038 52.403 1.49087 57.362C2.30747 64.9766 33.6448 67.8597 71.4846 63.8016Z" fill="url(#paint9_linear_221_86)"/>
</g>
<defs>
<filter id="filter0_dddd_221_86" x="27.8676" y="13.7795" width="85.7029" height="93.4771" filterUnits="userSpaceOnUse" color-interpolation-filters="sRGB">
<feFlood flood-opacity="0" result="BackgroundImageFix"/>
<feColorMatrix in="SourceAlpha" type="matrix" values="0 0 0 0 0 0 0 0 0 0 0 0 0 0 0 0 0 0 127 0" result="hardAlpha"/>
<feOffset dx="0.207344" dy="1.03672"/>
<feGaussianBlur stdDeviation="1.24407"/>
<feColorMatrix type="matrix" values="0 0 0 0 0 0 0 0 0 0 0 0 0 0 0 0 0 0 0.1 0"/>
<feBlend mode="normal" in2="BackgroundImageFix" result="effect1_dropShadow_221_86"/>
<feColorMatrix in="SourceAlpha" type="matrix" values="0 0 0 0 0 0 0 0 0 0 0 0 0 0 0 0 0 0 127 0" result="hardAlpha"/>
<feOffset dx="0.622033" dy="4.35423"/>
<feGaussianBlur stdDeviation="2.28079"/>
<feColorMatrix type="matrix" values="0 0 0 0 0 0 0 0 0 0 0 0 0 0 0 0 0 0 0.09 0"/>
<feBlend mode="normal" in2="effect1_dropShadow_221_86" result="effect2_dropShadow_221_86"/>
<feColorMatrix in="SourceAlpha" type="matrix" values="0 0 0 0 0 0 0 0 0 0 0 0 0 0 0 0 0 0 127 0" result="hardAlpha"/>
<feOffset dx="1.45141" dy="9.95253"/>
<feGaussianBlur stdDeviation="3.00649"/>
<feColorMatrix type="matrix" values="0 0 0 0 0 0 0 0 0 0 0 0 0 0 0 0 0 0 0.05 0"/>
<feBlend mode="normal" in2="effect2_dropShadow_221_86" result="effect3_dropShadow_221_86"/>
<feColorMatrix in="SourceAlpha" type="matrix" values="0 0 0 0 0 0 0 0 0 0 0 0 0 0 0 0 0 0 127 0" result="hardAlpha"/>
<feOffset dx="2.48813" dy="17.8316"/>
<feGaussianBlur stdDeviation="3.62853"/>
<feColorMatrix type="matrix" values="0 0 0 0 0 0 0 0 0 0 0 0 0 0 0 0 0 0 0.01 0"/>
<feBlend mode="normal" in2="effect3_dropShadow_221_86" result="effect4_dropShadow_221_86"/>
<feBlend mode="normal" in="SourceGraphic" in2="effect4_dropShadow_221_86" result="shape"/>
</filter>
<filter id="filter1_ddddd_221_86" x="38.6543" y="14.7301" width="40.7269" height="73.265" filterUnits="userSpaceOnUse" color-interpolation-filters="sRGB">
<feFlood flood-opacity="0" result="BackgroundImageFix"/>
<feColorMatrix in="SourceAlpha" type="matrix" values="0 0 0 0 0 0 0 0 0 0 0 0 0 0 0 0 0 0 127 0" result="hardAlpha"/>
<feOffset dy="0.207344"/>
<feGaussianBlur stdDeviation="0.311016"/>
<feColorMatrix type="matrix" values="0 0 0 0 0 0 0 0 0 0 0 0 0 0 0 0 0 0 0.28 0"/>
<feBlend mode="normal" in2="BackgroundImageFix" result="effect1_dropShadow_221_86"/>
<feColorMatrix in="SourceAlpha" type="matrix" values="0 0 0 0 0 0 0 0 0 0 0 0 0 0 0 0 0 0 127 0" result="hardAlpha"/>
<feOffset dx="0.414689" dy="1.03672"/>
<feGaussianBlur stdDeviation="0.518361"/>
<feColorMatrix type="matrix" values="0 0 0 0 0 0 0 0 0 0 0 0 0 0 0 0 0 0 0.24 0"/>
<feBlend mode="normal" in2="effect1_dropShadow_221_86" result="effect2_dropShadow_221_86"/>
<feColorMatrix in="SourceAlpha" type="matrix" values="0 0 0 0 0 0 0 0 0 0 0 0 0 0 0 0 0 0 127 0" result="hardAlpha"/>
<feOffset dx="0.829377" dy="2.28079"/>
<feGaussianBlur stdDeviation="0.725705"/>
<feColorMatrix type="matrix" values="0 0 0 0 0 0 0 0 0 0 0 0 0 0 0 0 0 0 0.14 0"/>
<feBlend mode="normal" in2="effect2_dropShadow_221_86" result="effect3_dropShadow_221_86"/>
<feColorMatrix in="SourceAlpha" type="matrix" values="0 0 0 0 0 0 0 0 0 0 0 0 0 0 0 0 0 0 127 0" result="hardAlpha"/>
<feOffset dx="1.45141" dy="3.93954"/>
<feGaussianBlur stdDeviation="0.829377"/>
<feColorMatrix type="matrix" values="0 0 0 0 0 0 0 0 0 0 0 0 0 0 0 0 0 0 0.04 0"/>
<feBlend mode="normal" in2="effect3_dropShadow_221_86" result="effect4_dropShadow_221_86"/>
<feColorMatrix in="SourceAlpha" type="matrix" values="0 0 0 0 0 0 0 0 0 0 0 0 0 0 0 0 0 0 127 0" result="hardAlpha"/>
<feOffset dx="2.28079" dy="6.22033"/>
<feGaussianBlur stdDeviation="0.933049"/>
<feColorMatrix type="matrix" values="0 0 0 0 0 0 0 0 0 0 0 0 0 0 0 0 0 0 0.01 0"/>
<feBlend mode="normal" in2="effect4_dropShadow_221_86" result="effect5_dropShadow_221_86"/>
<feBlend mode="normal" in="SourceGraphic" in2="effect5_dropShadow_221_86" result="shape"/>
</filter>
<filter id="filter2_ddddd_221_86" x="83.3718" y="22.0749" width="22.1573" height="62.6872" filterUnits="userSpaceOnUse" color-interpolation-filters="sRGB">
<feFlood flood-opacity="0" result="BackgroundImageFix"/>
<feColorMatrix in="SourceAlpha" type="matrix" values="0 0 0 0 0 0 0 0 0 0 0 0 0 0 0 0 0 0 127 0" result="hardAlpha"/>
<feOffset dy="0.207344"/>
<feGaussianBlur stdDeviation="0.207344"/>
<feColorMatrix type="matrix" values="0 0 0 0 0 0 0 0 0 0 0 0 0 0 0 0 0 0 0.39 0"/>
<feBlend mode="normal" in2="BackgroundImageFix" result="effect1_dropShadow_221_86"/>
<feColorMatrix in="SourceAlpha" type="matrix" values="0 0 0 0 0 0 0 0 0 0 0 0 0 0 0 0 0 0 127 0" result="hardAlpha"/>
<feOffset dx="-0.207344" dy="0.622033"/>
<feGaussianBlur stdDeviation="0.414689"/>
<feColorMatrix type="matrix" values="0 0 0 0 0 0 0 0 0 0 0 0 0 0 0 0 0 0 0.34 0"/>
<feBlend mode="normal" in2="effect1_dropShadow_221_86" result="effect2_dropShadow_221_86"/>
<feColorMatrix in="SourceAlpha" type="matrix" values="0 0 0 0 0 0 0 0 0 0 0 0 0 0 0 0 0 0 127 0" result="hardAlpha"/>
<feOffset dx="-0.414689" dy="1.65875"/>
<feGaussianBlur stdDeviation="0.518361"/>
<feColorMatrix type="matrix" values="0 0 0 0 0 0 0 0 0 0 0 0 0 0 0 0 0 0 0.2 0"/>
<feBlend mode="normal" in2="effect2_dropShadow_221_86" result="effect3_dropShadow_221_86"/>
<feColorMatrix in="SourceAlpha" type="matrix" values="0 0 0 0 0 0 0 0 0 0 0 0 0 0 0 0 0 0 127 0" result="hardAlpha"/>
<feOffset dx="-0.829377" dy="2.90282"/>
<feGaussianBlur stdDeviation="0.622033"/>
<feColorMatrix type="matrix" values="0 0 0 0 0 0 0 0 0 0 0 0 0 0 0 0 0 0 0.06 0"/>
<feBlend mode="normal" in2="effect3_dropShadow_221_86" result="effect4_dropShadow_221_86"/>
<feColorMatrix in="SourceAlpha" type="matrix" values="0 0 0 0 0 0 0 0 0 0 0 0 0 0 0 0 0 0 127 0" result="hardAlpha"/>
<feOffset dx="-1.24407" dy="4.35423"/>
<feGaussianBlur stdDeviation="0.622033"/>
<feColorMatrix type="matrix" values="0 0 0 0 0 0 0 0 0 0 0 0 0 0 0 0 0 0 0.01 0"/>
<feBlend mode="normal" in2="effect4_dropShadow_221_86" result="effect5_dropShadow_221_86"/>
<feBlend mode="normal" in="SourceGraphic" in2="effect5_dropShadow_221_86" result="shape"/>
</filter>
<filter id="filter3_dddd_221_86" x="27.6996" y="13.9967" width="85.9996" height="93.473" filterUnits="userSpaceOnUse" color-interpolation-filters="sRGB">
<feFlood flood-opacity="0" result="BackgroundImageFix"/>
<feColorMatrix in="SourceAlpha" type="matrix" values="0 0 0 0 0 0 0 0 0 0 0 0 0 0 0 0 0 0 127 0" result="hardAlpha"/>
<feOffset dy="1.23423"/>
<feGaussianBlur stdDeviation="1.23423"/>
<feColorMatrix type="matrix" values="0 0 0 0 0.878431 0 0 0 0 0.878431 0 0 0 0 0.878431 0 0 0 0.1 0"/>
<feBlend mode="normal" in2="BackgroundImageFix" result="effect1_dropShadow_221_86"/>
<feColorMatrix in="SourceAlpha" type="matrix" values="0 0 0 0 0 0 0 0 0 0 0 0 0 0 0 0 0 0 127 0" result="hardAlpha"/>
<feOffset dx="0.617117" dy="4.31982"/>
<feGaussianBlur stdDeviation="2.15991"/>
<feColorMatrix type="matrix" values="0 0 0 0 0.878431 0 0 0 0 0.878431 0 0 0 0 0.878431 0 0 0 0.09 0"/>
<feBlend mode="normal" in2="effect1_dropShadow_221_86" result="effect2_dropShadow_221_86"/>
<feColorMatrix in="SourceAlpha" type="matrix" values="0 0 0 0 0 0 0 0 0 0 0 0 0 0 0 0 0 0 127 0" result="hardAlpha"/>
<feOffset dx="1.23423" dy="9.87387"/>
<feGaussianBlur stdDeviation="3.08558"/>
<feColorMatrix type="matrix" values="0 0 0 0 0.878431 0 0 0 0 0.878431 0 0 0 0 0.878431 0 0 0 0.05 0"/>
<feBlend mode="normal" in2="effect2_dropShadow_221_86" result="effect3_dropShadow_221_86"/>
<feColorMatrix in="SourceAlpha" type="matrix" values="0 0 0 0 0 0 0 0 0 0 0 0 0 0 0 0 0 0 127 0" result="hardAlpha"/>
<feOffset dx="2.46847" dy="17.8964"/>
<feGaussianBlur stdDeviation="3.7027"/>
<feColorMatrix type="matrix" values="0 0 0 0 0.878431 0 0 0 0 0.878431 0 0 0 0 0.878431 0 0 0 0.01 0"/>
<feBlend mode="normal" in2="effect3_dropShadow_221_86" result="effect4_dropShadow_221_86"/>
<feBlend mode="normal" in="SourceGraphic" in2="effect4_dropShadow_221_86" result="shape"/>
</filter>
<filter id="filter4_ddddd_221_86" x="38.6543" y="14.7301" width="40.7269" height="73.265" filterUnits="userSpaceOnUse" color-interpolation-filters="sRGB">
<feFlood flood-opacity="0" result="BackgroundImageFix"/>
<feColorMatrix in="SourceAlpha" type="matrix" values="0 0 0 0 0 0 0 0 0 0 0 0 0 0 0 0 0 0 127 0" result="hardAlpha"/>
<feOffset dy="0.207344"/>
<feGaussianBlur stdDeviation="0.311016"/>
<feColorMatrix type="matrix" values="0 0 0 0 0 0 0 0 0 0 0 0 0 0 0 0 0 0 0.28 0"/>
<feBlend mode="normal" in2="BackgroundImageFix" result="effect1_dropShadow_221_86"/>
<feColorMatrix in="SourceAlpha" type="matrix" values="0 0 0 0 0 0 0 0 0 0 0 0 0 0 0 0 0 0 127 0" result="hardAlpha"/>
<feOffset dx="0.414689" dy="1.03672"/>
<feGaussianBlur stdDeviation="0.518361"/>
<feColorMatrix type="matrix" values="0 0 0 0 0 0 0 0 0 0 0 0 0 0 0 0 0 0 0.24 0"/>
<feBlend mode="normal" in2="effect1_dropShadow_221_86" result="effect2_dropShadow_221_86"/>
<feColorMatrix in="SourceAlpha" type="matrix" values="0 0 0 0 0 0 0 0 0 0 0 0 0 0 0 0 0 0 127 0" result="hardAlpha"/>
<feOffset dx="0.829377" dy="2.28079"/>
<feGaussianBlur stdDeviation="0.725705"/>
<feColorMatrix type="matrix" values="0 0 0 0 0 0 0 0 0 0 0 0 0 0 0 0 0 0 0.14 0"/>
<feBlend mode="normal" in2="effect2_dropShadow_221_86" result="effect3_dropShadow_221_86"/>
<feColorMatrix in="SourceAlpha" type="matrix" values="0 0 0 0 0 0 0 0 0 0 0 0 0 0 0 0 0 0 127 0" result="hardAlpha"/>
<feOffset dx="1.45141" dy="3.93954"/>
<feGaussianBlur stdDeviation="0.829377"/>
<feColorMatrix type="matrix" values="0 0 0 0 0 0 0 0 0 0 0 0 0 0 0 0 0 0 0.04 0"/>
<feBlend mode="normal" in2="effect3_dropShadow_221_86" result="effect4_dropShadow_221_86"/>
<feColorMatrix in="SourceAlpha" type="matrix" values="0 0 0 0 0 0 0 0 0 0 0 0 0 0 0 0 0 0 127 0" result="hardAlpha"/>
<feOffset dx="2.28079" dy="6.22033"/>
<feGaussianBlur stdDeviation="0.933049"/>
<feColorMatrix type="matrix" values="0 0 0 0 0 0 0 0 0 0 0 0 0 0 0 0 0 0 0.01 0"/>
<feBlend mode="normal" in2="effect4_dropShadow_221_86" result="effect5_dropShadow_221_86"/>
<feBlend mode="normal" in="SourceGraphic" in2="effect5_dropShadow_221_86" result="shape"/>
</filter>
<filter id="filter5_ddddd_221_86" x="83.3718" y="22.0749" width="22.1573" height="62.6872" filterUnits="userSpaceOnUse" color-interpolation-filters="sRGB">
<feFlood flood-opacity="0" result="BackgroundImageFix"/>
<feColorMatrix in="SourceAlpha" type="matrix" values="0 0 0 0 0 0 0 0 0 0 0 0 0 0 0 0 0 0 127 0" result="hardAlpha"/>
<feOffset dy="0.207344"/>
<feGaussianBlur stdDeviation="0.207344"/>
<feColorMatrix type="matrix" values="0 0 0 0 0 0 0 0 0 0 0 0 0 0 0 0 0 0 0.39 0"/>
<feBlend mode="normal" in2="BackgroundImageFix" result="effect1_dropShadow_221_86"/>
<feColorMatrix in="SourceAlpha" type="matrix" values="0 0 0 0 0 0 0 0 0 0 0 0 0 0 0 0 0 0 127 0" result="hardAlpha"/>
<feOffset dx="-0.207344" dy="0.622033"/>
<feGaussianBlur stdDeviation="0.414689"/>
<feColorMatrix type="matrix" values="0 0 0 0 0 0 0 0 0 0 0 0 0 0 0 0 0 0 0.34 0"/>
<feBlend mode="normal" in2="effect1_dropShadow_221_86" result="effect2_dropShadow_221_86"/>
<feColorMatrix in="SourceAlpha" type="matrix" values="0 0 0 0 0 0 0 0 0 0 0 0 0 0 0 0 0 0 127 0" result="hardAlpha"/>
<feOffset dx="-0.414689" dy="1.65875"/>
<feGaussianBlur stdDeviation="0.518361"/>
<feColorMatrix type="matrix" values="0 0 0 0 0 0 0 0 0 0 0 0 0 0 0 0 0 0 0.2 0"/>
<feBlend mode="normal" in2="effect2_dropShadow_221_86" result="effect3_dropShadow_221_86"/>
<feColorMatrix in="SourceAlpha" type="matrix" values="0 0 0 0 0 0 0 0 0 0 0 0 0 0 0 0 0 0 127 0" result="hardAlpha"/>
<feOffset dx="-0.829377" dy="2.90282"/>
<feGaussianBlur stdDeviation="0.622033"/>
<feColorMatrix type="matrix" values="0 0 0 0 0 0 0 0 0 0 0 0 0 0 0 0 0 0 0.06 0"/>
<feBlend mode="normal" in2="effect3_dropShadow_221_86" result="effect4_dropShadow_221_86"/>
<feColorMatrix in="SourceAlpha" type="matrix" values="0 0 0 0 0 0 0 0 0 0 0 0 0 0 0 0 0 0 127 0" result="hardAlpha"/>
<feOffset dx="-1.24407" dy="4.35423"/>
<feGaussianBlur stdDeviation="0.622033"/>
<feColorMatrix type="matrix" values="0 0 0 0 0 0 0 0 0 0 0 0 0 0 0 0 0 0 0.01 0"/>
<feBlend mode="normal" in2="effect4_dropShadow_221_86" result="effect5_dropShadow_221_86"/>
<feBlend mode="normal" in="SourceGraphic" in2="effect5_dropShadow_221_86" result="shape"/>
</filter>
<linearGradient id="paint0_linear_221_86" x1="43.5569" y1="82.0819" x2="97.8812" y2="23.1961" gradientUnits="userSpaceOnUse">
<stop stop-color="#27232F"/>
<stop offset="1" stop-color="#6102F2" stop-opacity="0.01"/>
</linearGradient>
<linearGradient id="paint1_linear_221_86" x1="62.1022" y1="25.0874" x2="48.7931" y2="79.868" gradientUnits="userSpaceOnUse">
<stop stop-color="#6A479D"/>
<stop offset="0.468691" stop-color="#422D5F"/>
<stop offset="1" stop-color="#141018"/>
</linearGradient>
<linearGradient id="paint2_linear_221_86" x1="74.0729" y1="86.4243" x2="109.113" y2="37.3682" gradientUnits="userSpaceOnUse">
<stop stop-color="#191420"/>
<stop offset="0.957662" stop-color="#6B489D"/>
</linearGradient>
<linearGradient id="paint3_linear_221_86" x1="77.7803" y1="37.4162" x2="62.7232" y2="60.7054" gradientUnits="userSpaceOnUse">
<stop stop-color="#6632B3"/>
<stop offset="1" stop-color="#B77F00" stop-opacity="0.69"/>
</linearGradient>
<linearGradient id="paint4_linear_221_86" x1="68.5214" y1="36.2275" x2="71.4786" y2="63.8022" gradientUnits="userSpaceOnUse">
<stop stop-color="#6326D5"/>
<stop offset="1" stop-color="#FAC821" stop-opacity="0.17"/>
</linearGradient>
<linearGradient id="paint5_linear_221_86" x1="43.5569" y1="82.0819" x2="97.8812" y2="23.1961" gradientUnits="userSpaceOnUse">
<stop stop-color="#27232F"/>
<stop offset="1" stop-color="#6102F2" stop-opacity="0.01"/>
</linearGradient>
<linearGradient id="paint6_linear_221_86" x1="62.1022" y1="25.0874" x2="48.7931" y2="79.868" gradientUnits="userSpaceOnUse">
<stop stop-color="#6A479D"/>
<stop offset="0.468691" stop-color="#422D5F"/>
<stop offset="1" stop-color="#141018"/>
</linearGradient>
<linearGradient id="paint7_linear_221_86" x1="74.0729" y1="86.4243" x2="109.113" y2="37.3682" gradientUnits="userSpaceOnUse">
<stop stop-color="#191420"/>
<stop offset="0.957662" stop-color="#6B489D"/>
</linearGradient>
<linearGradient id="paint8_linear_221_86" x1="77.7803" y1="37.4162" x2="62.7232" y2="60.7054" gradientUnits="userSpaceOnUse">
<stop stop-color="#6632B3"/>
<stop offset="1" stop-color="#B77F00" stop-opacity="0.69"/>
</linearGradient>
<linearGradient id="paint9_linear_221_86" x1="68.5274" y1="36.2269" x2="71.4846" y2="63.8016" gradientUnits="userSpaceOnUse">
<stop stop-color="#6326D5"/>
<stop offset="1" stop-color="#FAC821" stop-opacity="0.17"/>
</linearGradient>
</defs>
</svg>
