<svg width="27" height="47" viewBox="0 0 27 47" fill="none" xmlns="http://www.w3.org/2000/svg">
<path id="Vector" d="M8.42734 3.32843C8.42734 4.24755 9.17244 4.99265 10.0916 4.99265H16.7484C17.6675 4.99265 18.4126 4.24755 18.4126 3.32843V1.66422H21.7411C22.6238 1.66422 23.4704 2.01489 24.0946 2.63909L25.2714 1.46231L24.0946 2.63909C24.7188 3.26329 25.0695 4.10989 25.0695 4.99265V41.6054C25.0695 42.4881 24.7188 43.3347 24.0946 43.9589C23.4704 44.5831 22.6238 44.9338 21.7411 44.9338H5.09891C4.21616 44.9338 3.36956 44.5831 2.74535 43.9589C2.12115 43.3347 1.77048 42.4881 1.77048 41.6054V4.99265C1.77048 4.10989 2.12115 3.26329 2.74535 2.63909C3.36956 2.01489 4.21615 1.66422 5.09891 1.66422H8.42734V3.32843ZM10.0916 38.277C9.17244 38.277 8.42734 39.0221 8.42734 39.9412C8.42734 40.8603 9.17244 41.6054 10.0916 41.6054H13.42H16.7484C17.6675 41.6054 18.4126 40.8603 18.4126 39.9412C18.4126 39.0221 17.6675 38.277 16.7484 38.277H13.42H10.0916Z" stroke="#F8F8F8" stroke-width="3.32843" stroke-linecap="round" stroke-linejoin="round"/>
</svg>
